<?xml version="1.0" standalone="no"?>
<!DOCTYPE svg PUBLIC "-//W3C//DTD SVG 20010904//EN"
 "http://www.w3.org/TR/2001/REC-SVG-20010904/DTD/svg10.dtd">
<svg version="1.0" xmlns="http://www.w3.org/2000/svg"
 width="464.000000pt" height="464.000000pt" viewBox="0 0 464.000000 464.000000"
 preserveAspectRatio="xMidYMid meet">
<metadata>
Created by potrace 1.11, written by Peter Selinger 2001-2013
</metadata>
<g transform="translate(0.000000,464.000000) scale(0.100000,-0.100000)"
fill="#000000" stroke="none">
<path d="M325 4098 c2 -299 6 -577 8 -618 3 -41 8 -115 12 -165 8 -122 14
-201 20 -255 3 -25 7 -67 10 -95 2 -27 7 -68 11 -90 3 -22 7 -53 9 -70 1 -16
5 -41 8 -55 4 -14 9 -42 12 -63 9 -65 35 -188 56 -267 12 -41 23 -84 25 -95 8
-45 79 -248 126 -365 86 -211 207 -439 331 -625 63 -94 211 -295 243 -330 11
-11 41 -47 68 -80 122 -148 435 -444 626 -591 134 -104 386 -271 430 -286 14
-4 78 30 200 110 66 43 304 220 341 253 14 13 60 53 102 89 126 107 385 376
500 520 158 196 330 456 414 625 15 31 36 71 45 88 78 146 204 491 254 697 2
8 10 42 18 75 8 33 17 77 20 97 3 21 10 57 15 80 5 24 12 68 16 98 3 30 8 62
10 70 2 8 7 44 10 80 4 36 8 76 10 90 6 45 14 140 30 370 15 230 26 971 17
1178 l-4 72 -1998 0 -1999 0 4 -542z"/>
</g>
</svg>
